<svg width="21" height="21" fill="none" xmlns="http://www.w3.org/2000/svg"><path fill="#000" d="M0 0h1.61538v1.61538H0z"/><path fill="#000" d="M0 1.61523h1.61538v1.61538H0zM0 3.23096h1.61538v1.61538H0z"/><path fill="#000" d="M0 4.84619h1.61538v1.61538H0z"/><path fill="#000" d="M0 6.46143h1.61538v1.61538H0zM0 8.07715h1.61538v1.61538H0z"/><path fill="#000" d="M0 9.69238h1.61538v1.61538H0z"/><path fill="#000" d="M0 11.3076h1.61538v1.61538H0z"/><path fill="#000" d="M0 12.9229h1.61538v1.61538H0zM0 14.5386h1.61538v1.61538H0z"/><path fill="#000" d="M0 16.1538h1.61538v1.61538H0z"/><path fill="#000" d="M0 17.769h1.61538v1.61538H0zM0 19.3848h1.61538v1.61538H0zM17.7693 0v1.61538h-1.61538V0zM16.1538 0v1.61538h-1.61538V0z"/><path fill="#000" d="M14.5385 0v1.61538h-1.61538V0zM12.9231 0v1.61538h-1.61538V0zM11.3077 0v1.61538H9.69232V0zM9.69226 0v1.61538H8.07688V0z"/><path fill="#000" d="M8.0769 0v1.61538H6.46152V0z"/><path fill="#000" d="M6.46155 0v1.61538H4.84617V0z"/><path fill="#000" d="M4.84619 0v1.61538H3.23081V0zM3.23071 0v1.61538H1.61533V0zM19.3846 1.61523v1.61538h-1.61538V1.61523zM4.84619 3.23096v1.61538H3.23081V3.23096z"/><path fill="#000" d="M4.84619 1.61523v1.61538H3.23081V1.61523zM4.84619 4.84619v1.61538H3.23081V4.84619zM16.1538 3.23096v1.61538h-1.61538V3.23096zM16.1538 1.61523v1.61538h-1.61538V1.61523z"/><path fill="#000" d="M16.1538 4.84619v1.61538h-1.61538V4.84619zM12.9231 3.23096v1.61538h-1.61538V3.23096zM12.9231 1.61523v1.61538h-1.61538V1.61523z"/><path fill="#000" d="M12.9231 4.84619v1.61538h-1.61538V4.84619zM16.1538 6.46143v1.61538h-1.61538V6.46143z"/><path fill="#000" d="M14.5385 6.46143v1.61538h-1.61538V6.46143zM12.9231 6.46143v1.61538h-1.61538V6.46143zM11.3077 6.46143v1.61538H9.69232V6.46143zM9.69226 6.46143v1.61538H8.07688V6.46143z"/><path fill="#000" d="M8.0769 6.46143v1.61538H6.46152V6.46143z"/><path fill="#000" d="M6.46155 6.46143v1.61538H4.84617V6.46143z"/><path fill="#000" d="M4.84619 6.46143v1.61538H3.23081V6.46143zM17.7693 11.3076v1.61538h-1.61538V11.3076zM16.1538 11.3076v1.61538h-1.61538V11.3076z"/><path fill="#000" d="M14.5385 11.3076v1.61538h-1.61538V11.3076zM12.9231 11.3076v1.61538h-1.61538V11.3076zM11.3077 11.3076v1.61538H9.69232V11.3076zM9.69226 11.3076v1.61538H8.07688V11.3076z"/><path fill="#000" d="M8.0769 11.3076v1.61538H6.46152V11.3076z"/><path fill="#000" d="M6.46155 11.3076v1.61538H4.84617V11.3076z"/><path fill="#000" d="M4.84619 11.3076v1.61538H3.23081V11.3076zM17.7693 12.9229v1.61538h-1.61538V12.9229z"/><path fill="#000" d="M4.84619 12.9229v1.61538H3.23081V12.9229zM17.7693 14.5386v1.61538h-1.61538V14.5386zM4.84619 14.5386v1.61538H3.23081V14.5386z"/><path fill="#000" d="M17.7693 16.1538v1.61538h-1.61538V16.1538zM4.84619 16.1538v1.61538H3.23081V16.1538z"/><path fill="#000" d="M4.84619 17.769v1.61538H3.23081V17.769zM17.7693 17.769v1.61538h-1.61538V17.769zM19.3846 19.3848v1.61538h-1.61538V19.3848z"/><path fill="#000" d="M17.7693 19.3848v1.61538h-1.61538V19.3848zM16.1538 19.3848v1.61538h-1.61538V19.3848z"/><path fill="#000" d="M14.5385 19.3848v1.61538h-1.61538V19.3848zM12.9231 19.3848v1.61538h-1.61538V19.3848zM11.3077 19.3848v1.61538H9.69232V19.3848zM9.69226 19.3848v1.61538H8.07688V19.3848z"/><path fill="#000" d="M8.0769 19.3848v1.61538H6.46152V19.3848z"/><path fill="#000" d="M6.46155 19.3848v1.61538H4.84617V19.3848z"/><path fill="#000" d="M4.84619 19.3848v1.61538H3.23081V19.3848zM3.23071 19.3848v1.61538H1.61533V19.3848zM21 21h-1.61538v-1.61538H21z"/><path fill="#000" d="M21 19.3848h-1.61538v-1.61538H21zM21 17.769h-1.61538v-1.61538H21z"/><path fill="#000" d="M21 16.1538h-1.61538v-1.61538H21z"/><path fill="#000" d="M21 14.5386h-1.61538v-1.61538H21zM21 12.9229h-1.61538v-1.61538H21z"/><path fill="#000" d="M21 11.3076h-1.61538V9.69222H21z"/><path fill="#000" d="M21 9.69238h-1.61538V8.077H21z"/><path fill="#000" d="M21 8.07715h-1.61538V6.46177H21zM21 6.46143h-1.61538V4.84605H21z"/><path fill="#000" d="M21 4.84619h-1.61538V3.23081H21z"/></svg>